<?xml version="1.0" encoding="UTF-8"?>
<svg width="397px" height="820px" viewBox="0 0 397 820" version="1.1" xmlns="http://www.w3.org/2000/svg" xmlns:xlink="http://www.w3.org/1999/xlink">
    <title>Artboard</title>
    <defs>
        <path d="M216.192789,147.83055 C204.676807,98.0658852 136.260305,98.0658852 122.887716,147.83055" id="path-1"></path>
        <filter x="-7.7%" y="-18.8%" width="115.5%" height="138.1%" filterUnits="objectBoundingBox" id="filter-2">
            <feGaussianBlur stdDeviation="2" in="SourceGraphic"></feGaussianBlur>
        </filter>
        <path d="M293.711985,711.071756 C282.196003,661.307091 213.779501,661.307091 200.406912,711.071756" id="path-3"></path>
        <filter x="-7.7%" y="-18.8%" width="115.5%" height="138.1%" filterUnits="objectBoundingBox" id="filter-4">
            <feGaussianBlur stdDeviation="2" in="SourceGraphic"></feGaussianBlur>
        </filter>
        <path d="M423.227851,482.045312 C380.723941,376.469435 264.373223,349.970671 164.227851,349.970671" id="path-5"></path>
        <filter x="-2.7%" y="-5.3%" width="105.5%" height="110.8%" filterUnits="objectBoundingBox" id="filter-6">
            <feGaussianBlur stdDeviation="2" in="SourceGraphic"></feGaussianBlur>
        </filter>
        <path d="M380.401102,438.511394 C355.734146,365.492827 287.564136,322.164328 207.761769,307.143922" id="path-7"></path>
        <filter x="-4.2%" y="-5.5%" width="108.4%" height="111.0%" filterUnits="objectBoundingBox" id="filter-8">
            <feGaussianBlur stdDeviation="2" in="SourceGraphic"></feGaussianBlur>
        </filter>
        <path d="M45.0114566,355.863099 C67.8749131,411.530494 128.733699,452.302147 168.522786,459.147325" id="path-9"></path>
        <filter x="-5.9%" y="-7.1%" width="111.7%" height="114.0%" filterUnits="objectBoundingBox" id="filter-10">
            <feGaussianBlur stdDeviation="2" in="SourceGraphic"></feGaussianBlur>
        </filter>
        <path d="M82.0227864,295.647325 C90.0976934,362.948694 118.70494,429.209868 168.522786,459.147325" id="path-11"></path>
        <filter x="-8.2%" y="-4.3%" width="116.7%" height="108.9%" filterUnits="objectBoundingBox" id="filter-12">
            <feGaussianBlur stdDeviation="2" in="SourceGraphic"></feGaussianBlur>
        </filter>
        <path d="M283.4246,190.209173 C240.514246,181.941173 139.225851,214.813468 103.550382,250.66073" id="path-13"></path>
        <filter x="-4.1%" y="-11.4%" width="108.1%" height="123.4%" filterUnits="objectBoundingBox" id="filter-14">
            <feGaussianBlur stdDeviation="2" in="SourceGraphic"></feGaussianBlur>
        </filter>
        <path d="M329.827658,253.280785 C301.054226,245.399929 270.3977,223.375179 219.621238,223.375179 C175.360635,223.375179 138.084063,233.343714 107.791522,253.280785" id="path-15"></path>
        <filter x="-3.3%" y="-23.4%" width="106.6%" height="148.1%" filterUnits="objectBoundingBox" id="filter-16">
            <feGaussianBlur stdDeviation="2" in="SourceGraphic"></feGaussianBlur>
        </filter>
        <path d="M128.733699,51 C169.540253,2.50940526 245.034106,2.50940526 294.081435,38.1943988 C343.128764,73.8793924 359.765171,152.507051 359.765171,224.077154" id="path-17"></path>
        <filter x="-3.2%" y="-3.3%" width="106.2%" height="106.6%" filterUnits="objectBoundingBox" id="filter-18">
            <feGaussianBlur stdDeviation="2" in="SourceGraphic"></feGaussianBlur>
        </filter>
    </defs>
    <g id="Artboard" stroke="none" stroke-width="1" fill="none" fill-rule="evenodd">
        <circle id="Oval-Copy-6" stroke="#01FE92" transform="translate(313.362057, 190.209173) rotate(-270.000000) translate(-313.362057, -190.209173) " cx="313.362057" cy="190.209173" r="29.9374566"></circle>
        <circle id="Oval-Copy-7" stroke="#01FE92" transform="translate(77.854065, 266.050730) rotate(-270.000000) translate(-77.854065, -266.050730) " cx="77.8540653" cy="266.05073" r="29.9374566"></circle>
        <circle id="Oval-Copy-8" stroke="#01FE92" transform="translate(37.937457, 325.925643) rotate(-270.000000) translate(-37.937457, -325.925643) " cx="37.9374566" cy="325.925643" r="29.9374566"></circle>
        <circle id="Oval-Copy-9" stroke="#01FE92" transform="translate(129.246699, 80.937457) rotate(-270.000000) translate(-129.246699, -80.937457) " cx="129.246699" cy="80.9374566" r="29.9374566"></circle>
        <circle id="Oval-Copy-10" stroke="#01FE92" transform="translate(210.576789, 80.937457) rotate(-270.000000) translate(-210.576789, -80.937457) " cx="210.576789" cy="80.9374566" r="29.9374566"></circle>
        <circle id="Oval-Copy-2" stroke="#01FE92" transform="translate(198.460243, 459.147325) rotate(-270.000000) translate(-198.460243, -459.147325) " cx="198.460243" cy="459.147325" r="29.9374566"></circle>
        <circle id="Oval-Copy-3" stroke="#01FE92" transform="translate(198.460243, 552.452397) rotate(-270.000000) translate(-198.460243, -552.452397) " cx="198.460243" cy="552.452397" r="29.9374566"></circle>
        <circle id="Oval-Copy-4" stroke="#01FE92" transform="translate(198.460243, 645.757470) rotate(-270.000000) translate(-198.460243, -645.757470) " cx="198.460243" cy="645.75747" r="29.9374566"></circle>
        <circle id="Oval-Copy-5" stroke="#01FE92" transform="translate(198.460243, 739.062543) rotate(-270.000000) translate(-198.460243, -739.062543) " cx="198.460243" cy="739.062543" r="29.9374566"></circle>
        <g id="Line-5-Copy-8" opacity="0.5" stroke-linecap="square" filter="url(#filter-2)" transform="translate(169.540253, 129.168801) rotate(-180.000000) translate(-169.540253, -129.168801) ">
            <use stroke="#01FE92" stroke-width="2" xlink:href="#path-1"></use>
            <use stroke="#979797" stroke-width="1" xlink:href="#path-1"></use>
        </g>
        <g id="Line-5-Copy-8" opacity="0.5" stroke-linecap="square" filter="url(#filter-4)" transform="translate(247.059449, 692.410007) rotate(-270.000000) translate(-247.059449, -692.410007) ">
            <use stroke="#01FE92" stroke-width="2" xlink:href="#path-3"></use>
            <use stroke="#979797" stroke-width="1" xlink:href="#path-3"></use>
        </g>
        <g id="Line-5-Copy-6" opacity="0.5" stroke-linecap="square" filter="url(#filter-6)" transform="translate(293.727851, 416.007992) rotate(-270.000000) translate(-293.727851, -416.007992) ">
            <use stroke="#01FE92" stroke-width="2" xlink:href="#path-5"></use>
            <use stroke="#979797" stroke-width="1" xlink:href="#path-5"></use>
        </g>
        <g id="Line-5-Copy-7" opacity="0.5" stroke-linecap="square" filter="url(#filter-8)" transform="translate(294.081435, 372.827658) rotate(-270.000000) translate(-294.081435, -372.827658) ">
            <use stroke="#01FE92" stroke-width="2" xlink:href="#path-7"></use>
            <use stroke="#979797" stroke-width="1" xlink:href="#path-7"></use>
        </g>
        <circle id="Oval-Copy" stroke="#01FE92" transform="translate(359.765115, 256.570535) rotate(-270.000000) translate(-359.765115, -256.570535) " cx="359.765115" cy="256.570535" r="29.9374566"></circle>
        <polygon id="1" fill="#01FE92" fill-rule="nonzero" transform="translate(196.947701, 459.997147) rotate(-360.000000) translate(-196.947701, -459.997147) " points="200.876201 467.692147 200.876201 452.302147 199.040201 452.302147 193.019201 456.460147 193.775201 457.567147 198.986201 453.976147 199.472201 454.354147 199.472201 467.692147"></polygon>
        <polygon id="4" fill="#01FE92" fill-rule="nonzero" transform="translate(38.031957, 324.849861) rotate(-360.000000) translate(-38.031957, -324.849861) " points="40.9344566 333.354861 40.9344566 329.223861 41.4474566 328.710861 45.0114566 328.710861 45.0114566 327.495861 40.9344566 327.495861 40.9344566 322.743861 39.5304566 322.743861 39.5304566 327.495861 32.8614566 327.495861 32.8614566 326.955861 39.3414566 317.019861 38.1264566 316.344861 31.0524566 327.198861 31.0524566 328.710861 39.0174566 328.710861 39.5304566 329.223861 39.5304566 333.354861"></polygon>
        <path d="M72.7780653,276.33173 C79.4470653,275.44073 83.2540653,272.71373 83.2540653,268.71773 C83.2540653,266.15273 81.3640653,264.28973 78.4480653,264.28973 C76.9630653,264.28973 75.5590653,264.77573 74.5600653,265.61273 L74.1820653,265.36973 L74.4520653,259.48373 L82.6060653,259.48373 L82.6060653,258.16073 L73.2100653,258.16073 L72.8320653,267.20573 L74.6140653,267.20573 C75.6940653,266.04473 76.8820653,265.55873 78.3940653,265.55873 C80.4730653,265.55873 81.8770653,266.96273 81.8770653,268.71773 C81.8770653,271.95773 78.9610653,273.98273 72.5080653,275.03573 L72.7780653,276.33173 Z" id="5" fill="#01FE92" fill-rule="nonzero" transform="translate(77.881065, 267.246230) rotate(-360.000000) translate(-77.881065, -267.246230) "></path>
        <path d="M123.846699,91.1914566 C127.005699,90.9754566 129.543699,90.2464566 131.487699,89.0044566 C133.431699,87.7354566 134.403699,86.1424566 134.403699,84.2254566 C134.403699,82.1464566 133.161699,80.7424566 131.001699,80.3374566 L131.001699,79.9594566 C132.486699,79.1224566 133.269699,77.9614566 133.269699,76.5844566 C133.269699,74.1274566 131.595699,72.6694566 128.814699,72.6694566 C126.546699,72.6694566 124.386699,73.9384566 123.063699,75.9904566 L124.035699,76.7734566 C125.250699,75.0184566 126.978699,73.9654566 128.787699,73.9654566 C130.758699,73.9654566 131.919699,74.9374566 131.919699,76.6384566 C131.919699,78.3934566 130.299699,79.6354566 126.627699,80.5804566 L127.059699,81.7684566 C128.058699,81.3634566 128.814699,81.2284566 129.543699,81.2284566 C131.703699,81.2284566 133.026699,82.3624566 133.026699,84.1984566 C133.026699,87.3304566 129.597699,89.3824566 123.576699,89.9494566 L123.846699,91.1914566 Z" id="3" fill="#01FE92" fill-rule="nonzero" transform="translate(128.733699, 81.930457) rotate(-360.000000) translate(-128.733699, -81.930457) "></path>
        <path d="M210.576789,88.8154566 C212.142789,88.8154566 213.465789,88.3024566 214.572789,87.2494566 C215.652789,86.2234566 216.192789,84.9544566 216.192789,83.4694566 C216.192789,81.9574566 215.652789,80.6884566 214.599789,79.6624566 C213.546789,78.6364566 212.223789,78.1234566 210.657789,78.1234566 C209.253789,78.1234566 208.065789,78.6634566 207.174789,79.8244566 L206.823789,79.6084566 C208.146789,76.1794566 211.008789,73.8574566 215.328789,72.7504566 L214.923789,71.4544566 C211.818789,72.2914566 209.388789,73.7224566 207.579789,75.7474566 C205.770789,77.7724566 204.852789,80.0944566 204.852789,82.6864566 C204.852789,84.0634566 205.176789,85.3864566 205.797789,86.3584566 C206.769789,87.8974566 208.551789,88.8154566 210.576789,88.8154566 Z M210.576789,87.5194566 C209.388789,87.5194566 208.389789,87.1144566 207.606789,86.3314566 C206.796789,85.5484566 206.391789,84.6034566 206.391789,83.4694566 C206.391789,82.3084566 206.796789,81.3364566 207.606789,80.5534566 C208.416789,79.7704566 209.415789,79.3924566 210.576789,79.3924566 C211.737789,79.3924566 212.736789,79.7704566 213.546789,80.5534566 C214.356789,81.3364566 214.761789,82.3084566 214.761789,83.4694566 C214.761789,84.6034566 214.356789,85.5484566 213.573789,86.3314566 C212.763789,87.1144566 211.764789,87.5194566 210.576789,87.5194566 Z" id="6" fill="#01FE92" fill-rule="nonzero" transform="translate(210.522789, 80.134957) rotate(-360.000000) translate(-210.522789, -80.134957) "></path>
        <polygon id="7" fill="#01FE92" fill-rule="nonzero" transform="translate(359.724615, 259.773230) rotate(-360.000000) translate(-359.724615, -259.773230) " points="358.037115 268.88573 366.218115 252.19973 366.218115 250.66073 353.231115 250.66073 353.231115 251.95673 364.274115 251.95673 364.625115 252.41573 356.822115 268.34573"></polygon>
        <path d="M319.032057,197.709173 L319.032057,196.467173 L308.556057,196.467173 C308.664057,195.873173 308.988057,195.306173 309.555057,194.739173 C310.122057,194.199173 311.229057,193.443173 312.903057,192.471173 C314.955057,191.256173 315.711057,190.743173 316.386057,190.122173 C317.655057,188.961173 318.222057,187.800173 318.222057,186.477173 C318.222057,183.750173 316.224057,181.941173 313.200057,181.941173 C310.824057,181.941173 308.718057,183.264173 307.206057,185.640173 L308.259057,186.450173 C309.663057,184.317173 311.337057,183.264173 313.200057,183.264173 C315.360057,183.264173 316.737057,184.533173 316.737057,186.504173 C316.737057,187.287173 316.467057,187.989173 315.900057,188.664173 C315.333057,189.339173 314.118057,190.230173 312.255057,191.310173 C310.257057,192.471173 308.934057,193.443173 308.259057,194.226173 C307.584057,195.009173 307.233057,195.873173 307.152057,196.791173 L307.152057,197.709173 L319.032057,197.709173 Z" id="2" fill="#01FE92" fill-rule="nonzero" transform="translate(313.092057, 189.825173) rotate(-360.000000) translate(-313.092057, -189.825173) "></path>
        <path d="M194.153201,654.473147 C197.285201,653.636147 199.796201,652.070147 201.713201,649.775147 C203.603201,647.480147 204.548201,644.915147 204.548201,642.053147 C204.548201,640.676147 204.224201,639.353147 203.603201,638.381147 C202.658201,636.842147 200.876201,635.924147 198.851201,635.924147 C197.285201,635.924147 195.962201,636.437147 194.882201,637.463147 C193.775201,638.516147 193.235201,639.785147 193.235201,641.270147 C193.235201,642.782147 193.775201,644.051147 194.855201,645.050147 C195.935201,646.076147 197.258201,646.589147 198.851201,646.589147 C200.255201,646.589147 201.416201,645.995147 202.388201,644.888147 L202.739201,645.104147 C201.443201,649.073147 198.095201,652.097147 193.748201,653.177147 L194.153201,654.473147 Z M198.851201,645.347147 C197.690201,645.347147 196.691201,644.942147 195.881201,644.159147 C195.044201,643.376147 194.639201,642.431147 194.639201,641.270147 C194.639201,640.136147 195.044201,639.164147 195.854201,638.381147 C196.664201,637.598147 197.663201,637.220147 198.851201,637.220147 C200.012201,637.220147 201.011201,637.598147 201.821201,638.381147 C202.631201,639.164147 203.036201,640.136147 203.036201,641.270147 C203.036201,642.404147 202.631201,643.376147 201.821201,644.159147 C201.011201,644.942147 200.012201,645.347147 198.851201,645.347147 Z" id="9" fill="#01FE92" fill-rule="nonzero" transform="translate(198.891701, 645.198647) rotate(-360.000000) translate(-198.891701, -645.198647) "></path>
        <path d="M198.959201,563.070147 C200.660201,563.070147 202.037201,562.638147 203.117201,561.774147 C204.197201,560.937147 204.737201,559.803147 204.737201,558.426147 C204.737201,556.590147 203.549201,555.159147 201.686201,554.538147 L201.686201,554.160147 C203.198201,553.593147 204.224201,552.189147 204.224201,550.461147 C204.224201,547.734147 202.091201,545.898147 198.959201,545.898147 C195.827201,545.898147 193.694201,547.734147 193.694201,550.461147 C193.694201,552.189147 194.720201,553.593147 196.232201,554.160147 L196.232201,554.538147 C194.369201,555.159147 193.181201,556.590147 193.181201,558.426147 C193.181201,559.803147 193.721201,560.937147 194.801201,561.774147 C195.881201,562.638147 197.258201,563.070147 198.959201,563.070147 Z M198.959201,553.701147 C196.610201,553.701147 195.098201,552.432147 195.098201,550.461147 C195.098201,548.409147 196.583201,547.194147 198.959201,547.194147 C201.335201,547.194147 202.820201,548.409147 202.820201,550.461147 C202.820201,552.432147 201.308201,553.701147 198.959201,553.701147 Z M198.959201,561.774147 C196.340201,561.774147 194.612201,560.478147 194.612201,558.426147 C194.612201,556.266147 196.259201,555.024147 198.959201,555.024147 C201.659201,555.024147 203.306201,556.266147 203.306201,558.426147 C203.306201,560.478147 201.578201,561.774147 198.959201,561.774147 Z" id="8" fill="#01FE92" fill-rule="nonzero" transform="translate(198.959201, 554.484147) rotate(-360.000000) translate(-198.959201, -554.484147) "></path>
        <path d="M198.959201,747.070147 C200.849201,747.070147 202.388201,746.314147 203.603201,744.775147 C204.791201,743.263147 205.385201,741.346147 205.385201,738.997147 C205.385201,736.648147 204.791201,734.731147 203.603201,733.192147 C202.388201,731.680147 200.849201,730.924147 198.959201,730.924147 C197.069201,730.924147 195.530201,731.680147 194.342201,733.192147 C193.127201,734.731147 192.533201,736.648147 192.533201,738.997147 C192.533201,741.346147 193.127201,743.263147 194.342201,744.775147 C195.530201,746.314147 197.069201,747.070147 198.959201,747.070147 Z M198.959201,745.720147 C197.447201,745.720147 196.232201,745.099147 195.341201,743.857147 C194.450201,742.615147 193.991201,740.995147 193.991201,738.997147 C193.991201,736.999147 194.450201,735.379147 195.341201,734.137147 C196.232201,732.895147 197.447201,732.274147 198.959201,732.274147 C200.471201,732.274147 201.686201,732.895147 202.577201,734.137147 C203.468201,735.379147 203.927201,736.999147 203.927201,738.997147 C203.927201,740.995147 203.468201,742.615147 202.577201,743.857147 C201.686201,745.099147 200.471201,745.720147 198.959201,745.720147 Z" id="0" fill="#01FE92" fill-rule="nonzero" transform="translate(198.959201, 738.997147) rotate(-360.000000) translate(-198.959201, -738.997147) "></path>
        <g id="Path-3" opacity="0.5" stroke-linecap="square" filter="url(#filter-10)">
            <use stroke="#01FE92" stroke-width="2" xlink:href="#path-9"></use>
            <use stroke="#979797" stroke-width="1" xlink:href="#path-9"></use>
        </g>
        <g id="Path-3-Copy" opacity="0.5" stroke-linecap="square" filter="url(#filter-12)">
            <use stroke="#01FE92" stroke-width="2" xlink:href="#path-11"></use>
            <use stroke="#979797" stroke-width="1" xlink:href="#path-11"></use>
        </g>
        <g id="Path-4" opacity="0.5" stroke-linecap="square" filter="url(#filter-14)">
            <use stroke="#01FE92" stroke-width="2" xlink:href="#path-13"></use>
            <use stroke="#979797" stroke-width="1" xlink:href="#path-13"></use>
        </g>
        <g id="Path-5" opacity="0.5" stroke-linecap="square" filter="url(#filter-16)">
            <use stroke="#01FE92" stroke-width="2" xlink:href="#path-15"></use>
            <use stroke="#979797" stroke-width="1" xlink:href="#path-15"></use>
        </g>
        <g id="Path-6" opacity="0.5" stroke-linecap="square" filter="url(#filter-18)">
            <use stroke="#01FE92" stroke-width="2" xlink:href="#path-17"></use>
            <use stroke="#979797" stroke-width="1" xlink:href="#path-17"></use>
        </g>
    </g>
</svg>